<svg xmlns="http://www.w3.org/2000/svg" version="1.0" preserveAspectRatio="xMidYMid meet" viewBox="223.82 319.18 1087.18 347.36">

<g transform="translate(0.000000,1024.000000) scale(0.100000,-0.100000)" fill="#ffffff" stroke="none">
<path d="M4225 7033 c-46 -23 -103 -83 -115 -117 -5 -17 -19 -89 -30 -161 -11 -71 -22 -130 -23 -131 -1 -1 -25 2 -52 8 -43 9 -318 12 -423 5 l-34 -2 -52 122 c-81 188 -142 253 -237 253 -126 -1 -199 -94 -185 -235 5 -51 35 -191 51 -246 4 -12 -19 -30 -87 -69 -427 -242 -685 -599 -778 -1075 -34 -177 -28 -448 16 -620 78 -310 214 -547 440 -765 223 -215 485 -350 789 -406 147 -28 432 -25 572 4 546 116 978 494 1157 1011 64 184 80 281 80 496 1 163 -2 206 -22 299 -44 206 -128 405 -244 577 -96 144 -282 325 -442 431 l-130 85 3 159 c3 240 -23 315 -131 368 -60 30 -81 31 -123 9z m105 -103 c45 -32 55 -77 54 -240 -1 -142 -13 -315 -55 -795 -13 -149 -19 -277 -16 -337 l5 -96 -82 -1 c-204 -2 -405 -53 -477 -121 -62 -59 -64 -106 -6 -181 63 -83 140 -125 270 -147 l38 -7 -49 -38 c-140 -106 -202 -230 -202 -402 0 -55 12 -75 46 -75 32 0 41 18 47 102 8 100 38 176 92 236 62 69 107 97 215 133 112 37 127 52 97 93 -10 14 -41 21 -143 32 -216 24 -285 49 -333 121 -30 46 -24 64 29 90 97 48 272 77 432 71 122 -4 165 -21 260 -107 91 -82 111 -133 116 -293 9 -298 -89 -614 -243 -777 -80 -84 -137 -128 -237 -180 -57 -30 -74 -43 -76 -63 -2 -14 4 -31 13 -38 14 -12 24 -11 65 3 26 9 51 17 54 17 4 0 5 -44 4 -97 l-3 -97 -60 -18 c-185 -57 -480 -69 -683 -29 -173 34 -162 25 -162 127 l0 86 38 -7 c80 -15 159 -25 209 -25 42 0 54 4 63 19 5 11 10 24 10 30 0 21 -33 41 -69 41 -73 0 -217 31 -280 61 -277 129 -506 467 -582 861 -30 154 -32 385 -5 476 32 107 125 192 211 192 87 0 136 -53 169 -185 14 -55 44 -156 66 -225 37 -110 41 -134 38 -199 -3 -62 -7 -76 -27 -92 -29 -24 -77 -18 -138 17 -54 31 -93 89 -128 186 -30 86 -43 101 -77 96 -32 -4 -35 -51 -9 -136 37 -124 115 -213 221 -253 98 -37 192 -13 229 60 12 22 21 49 21 61 0 26 4 25 44 -5 85 -65 193 -71 252 -14 59 58 69 107 67 329 -2 118 -9 230 -18 284 -27 157 -104 303 -188 355 -33 20 -36 28 -110 278 -156 530 -177 611 -177 699 0 53 4 65 26 88 40 39 79 35 124 -13 56 -58 148 -285 320 -786 40 -115 83 -242 97 -282 49 -142 109 -203 200 -203 102 0 111 23 138 325 18 203 64 574 101 805 23 149 25 156 56 183 38 32 60 34 98 7z m-350 -391 c35 -5 65 -11 66 -12 1 -1 -14 -123 -32 -272 -19 -148 -39 -333 -46 -410 -12 -131 -14 -140 -34 -143 -33 -5 -77 56 -109 151 -15 45 -74 215 -131 378 -57 163 -104 299 -104 302 0 17 294 22 390 6z m-816 -146 c2 -10 36 -126 75 -259 39 -133 71 -248 71 -256 0 -9 -19 -22 -43 -32 -54 -20 -155 -110 -173 -153 -8 -18 -14 -46 -14 -63 l0 -30 -42 22 c-94 49 -213 20 -306 -73 -52 -53 -76 -101 -103 -210 -19 -74 -21 -102 -16 -244 4 -101 13 -194 26 -253 81 -381 275 -687 549 -864 l62 -41 0 -83 c0 -51 -4 -84 -10 -84 -18 0 -193 91 -255 133 -305 207 -513 500 -605 853 -149 572 67 1171 549 1524 66 48 205 129 223 130 4 0 9 -8 12 -17z m1531 -164 c244 -197 436 -519 506 -852 26 -123 31 -368 10 -487 -71 -398 -294 -752 -611 -969 -72 -49 -238 -141 -255 -141 -3 0 -5 47 -5 104 l0 103 69 57 c155 130 246 285 305 522 34 137 48 248 48 389 -1 133 -15 199 -58 273 -38 65 -122 142 -204 188 -88 49 -94 66 -87 254 4 137 45 684 53 708 4 15 111 -54 229 -149z m-1270 -500 c51 -47 97 -134 120 -226 19 -75 34 -359 25 -467 -6 -70 -10 -82 -35 -103 -22 -19 -34 -23 -59 -17 -40 9 -109 56 -136 94 -77 109 -170 420 -170 571 0 73 24 113 98 160 66 42 102 39 157 -12z"/>
<path d="M7655 5866 c-82 -19 -125 -38 -194 -86 -69 -48 -113 -100 -152 -179 -52 -104 -63 -226 -32 -348 41 -165 210 -309 388 -332 85 -11 195 4 254 34 l53 27 27 -26 c24 -23 36 -26 95 -26 112 0 106 -14 106 238 0 156 -3 221 -12 230 -17 17 -369 17 -386 0 -15 -15 -16 -134 -2 -143 6 -4 34 -9 63 -11 28 -3 56 -9 61 -14 16 -16 -65 -87 -114 -100 -120 -32 -245 24 -296 135 -19 39 -24 67 -24 130 0 128 49 208 155 256 80 37 206 17 287 -45 19 -14 44 -26 54 -26 28 0 124 100 124 128 0 13 -14 36 -32 53 -95 88 -287 135 -423 105z"/>
<path d="M5908 5851 c-141 -45 -228 -147 -228 -267 0 -142 91 -221 319 -279 175 -44 206 -65 180 -126 -36 -89 -204 -82 -347 14 -29 20 -51 27 -66 23 -30 -7 -116 -100 -116 -124 0 -44 129 -125 252 -158 77 -20 214 -18 287 5 137 43 224 150 225 276 0 76 -28 132 -89 178 -46 36 -91 54 -259 106 -54 17 -111 41 -127 52 -56 39 -24 99 62 118 57 13 144 -7 201 -44 21 -14 46 -25 55 -25 29 0 123 88 123 115 0 29 -47 70 -115 101 -120 55 -253 68 -357 35z"/>
<path d="M11470 5852 c-72 -24 -94 -36 -142 -80 -99 -89 -115 -225 -39 -329 39 -55 136 -102 279 -138 126 -31 175 -57 180 -97 4 -36 -34 -77 -82 -88 -72 -16 -202 20 -286 80 -15 11 -36 20 -45 20 -20 0 -125 -105 -125 -125 0 -45 110 -116 238 -155 104 -32 262 -26 343 12 116 53 189 151 189 254 0 69 -16 112 -59 157 -48 51 -99 76 -260 127 -151 47 -198 79 -182 122 23 63 142 80 243 35 31 -14 59 -30 62 -36 15 -23 55 -10 105 35 70 63 67 85 -14 139 -80 54 -152 76 -260 81 -69 3 -103 0 -145 -14z"/>
<path d="M6738 5839 c-17 -9 -18 -41 -18 -444 0 -381 2 -435 16 -449 19 -20 173 -23 192 -4 9 9 12 123 12 450 0 422 -1 438 -19 448 -25 13 -161 13 -183 -1z"/>
<path d="M8522 5838 c-17 -17 -17 -879 0 -896 7 -7 44 -12 98 -12 54 0 91 5 98 12 9 9 12 89 12 300 0 158 3 288 8 288 4 0 81 -125 172 -278 91 -152 175 -287 187 -299 20 -21 31 -23 141 -23 78 0 122 4 130 12 17 17 17 879 0 896 -15 15 -161 16 -189 2 -18 -10 -19 -24 -19 -280 0 -149 -4 -270 -9 -270 -4 0 -77 116 -161 258 -84 141 -162 267 -173 280 -19 21 -28 22 -152 22 -88 0 -135 -4 -143 -12z"/>
<path d="M9746 5834 c-14 -14 -16 -68 -16 -444 0 -376 2 -430 16 -444 13 -14 56 -16 318 -16 221 0 305 3 314 12 16 16 16 150 0 166 -9 9 -69 12 -208 12 -139 0 -199 3 -208 12 -9 9 -12 101 -12 353 0 252 -3 344 -12 353 -19 19 -173 16 -192 -4z"/>
<path d="M10712 5838 c-9 -9 -12 -121 -12 -444 0 -380 2 -434 16 -448 20 -21 166 -23 182 -3 17 20 17 873 1 893 -15 18 -169 20 -187 2z"/>
<path d="M12292 5838 c-17 -17 -17 -879 0 -896 7 -7 43 -12 93 -12 50 0 86 5 93 12 8 8 12 64 12 185 0 160 1 173 19 183 11 6 90 10 183 10 223 0 208 15 208 -204 0 -149 2 -175 16 -180 9 -3 49 -6 89 -6 54 0 78 4 89 16 14 14 16 68 16 449 0 419 -1 435 -19 445 -27 14 -164 13 -179 -2 -8 -8 -12 -58 -12 -159 0 -121 -3 -150 -16 -163 -13 -13 -45 -16 -193 -16 -124 0 -181 4 -189 12 -8 8 -12 59 -12 163 0 104 -4 155 -12 163 -7 7 -43 12 -93 12 -50 0 -86 -5 -93 -12z"/>
<path d="M8345 4550 c-44 -10 -69 -26 -99 -60 -88 -105 -29 -270 105 -295 159 -29 268 169 163 295 -43 51 -108 74 -169 60z m99 -71 c53 -42 68 -100 42 -162 -52 -125 -239 -64 -222 71 10 73 49 111 117 112 22 0 47 -8 63 -21z"/>
<path d="M11389 4551 c-69 -22 -105 -69 -94 -121 8 -35 35 -54 111 -75 73 -21 104 -40 104 -64 0 -48 -95 -62 -167 -24 l-43 22 -11 -20 c-9 -18 -7 -24 12 -37 55 -40 122 -51 191 -32 74 21 103 106 54 155 -13 13 -50 31 -82 40 -113 31 -134 50 -97 87 25 24 97 27 140 4 31 -15 53 -7 53 20 0 28 -121 60 -171 45z"/>
<path d="M5729 4542 c-17 -7 -14 -25 57 -260 25 -83 25 -83 57 -80 31 3 32 4 71 128 33 104 40 121 47 100 4 -14 22 -71 39 -127 l32 -103 34 0 c19 0 34 3 34 8 0 4 20 79 45 167 44 159 44 174 9 175 -21 0 -32 -24 -59 -130 -15 -58 -30 -108 -34 -112 -4 -5 -22 44 -40 107 -18 63 -39 119 -47 125 -32 27 -48 7 -82 -100 -51 -159 -47 -154 -66 -85 -60 209 -57 204 -97 187z"/>
<path d="M6277 4544 c-4 -4 -7 -83 -7 -176 l0 -169 28 3 c27 3 27 4 30 81 l3 77 89 0 89 0 3 -77 c3 -77 3 -78 31 -81 l27 -3 0 169 c0 142 -2 171 -15 176 -34 13 -45 -4 -45 -70 l0 -64 -90 0 -89 0 -3 68 c-3 59 -6 67 -23 70 -12 2 -24 0 -28 -4z"/>
<path d="M6681 4541 c-8 -5 -11 -55 -9 -172 l3 -164 119 -3 c121 -3 141 3 129 35 -4 9 -30 13 -99 13 l-94 0 0 50 0 49 93 3 c87 3 92 4 95 26 3 21 1 22 -92 22 l-96 0 0 45 0 45 95 0 c95 0 95 0 95 25 0 25 0 25 -97 26 -54 0 -105 2 -114 4 -9 1 -22 0 -28 -4z"/>
<path d="M7843 4542 c-9 -6 6 -36 52 -105 65 -96 65 -97 65 -167 l0 -71 28 3 c26 3 27 5 30 76 3 70 5 76 63 165 59 89 60 92 38 101 -19 9 -26 5 -55 -29 -18 -22 -41 -55 -51 -72 -10 -18 -21 -33 -25 -33 -4 0 -26 28 -49 63 -54 78 -67 88 -96 69z"/>
<path d="M8640 4420 c0 -147 8 -173 64 -206 40 -24 129 -24 173 -1 54 29 67 66 71 204 4 116 3 121 -17 128 -11 3 -25 3 -31 0 -6 -3 -10 -51 -10 -111 0 -129 -14 -169 -62 -182 -47 -12 -88 -1 -112 31 -18 24 -22 47 -26 145 -5 112 -6 117 -27 120 -23 3 -23 3 -23 -128z"/>
<path d="M9583 4542 c-13 -8 -15 -42 -14 -214 l1 -128 25 0 c23 0 24 3 27 78 l3 77 90 0 90 0 3 -78 3 -78 27 3 27 3 3 166 c2 142 0 168 -13 173 -34 13 -45 -4 -45 -70 l0 -64 -85 0 c-47 0 -88 -1 -92 -2 -4 -2 -6 23 -4 55 3 70 -14 99 -46 79z"/>
<path d="M10093 4542 c-30 -3 -33 -7 -97 -165 -37 -89 -66 -165 -66 -169 0 -5 13 -8 29 -8 22 0 31 6 41 30 l12 30 88 0 88 0 12 -30 c10 -24 19 -30 41 -30 16 0 29 4 29 8 0 12 -131 326 -139 332 -3 3 -20 4 -38 2z m37 -139 c14 -37 27 -71 28 -75 2 -5 -24 -8 -57 -8 -34 0 -61 3 -61 7 0 14 53 143 59 143 3 0 17 -30 31 -67z"/>
<path d="M10334 4537 c-2 -7 -3 -85 -2 -172 l3 -160 27 -3 27 -3 3 128 3 128 91 -125 c85 -118 92 -125 125 -125 l34 0 0 165 0 165 -27 3 -28 3 -1 -128 0 -128 -24 30 c-14 17 -59 76 -100 133 -61 83 -79 102 -100 102 -14 0 -28 -6 -31 -13z"/>
<path d="M12423 4538 c-14 -18 -133 -310 -133 -325 0 -7 12 -13 26 -13 19 0 28 7 37 30 l11 30 92 0 92 0 11 -30 c7 -23 16 -30 35 -30 17 0 26 6 26 16 0 11 -111 298 -124 320 -1 1 -15 5 -32 8 -20 5 -34 2 -41 -6z m78 -170 l19 -48 -65 0 -65 0 21 53 c12 28 27 65 33 80 l11 29 14 -34 c7 -18 22 -54 32 -80z"/>
<path d="M12692 4542 c-9 -7 -12 -48 -10 -173 l3 -164 30 0 c30 0 30 0 32 64 2 36 7 69 11 73 5 5 38 -23 77 -66 54 -61 73 -76 96 -76 15 0 30 3 33 8 2 4 -31 46 -75 94 l-79 86 75 68 c41 38 75 72 75 76 0 15 -41 18 -67 4 -15 -8 -53 -40 -83 -70 -30 -31 -57 -56 -60 -56 -4 0 -7 26 -7 59 -1 77 -14 96 -51 73z"/>
<path d="M7010 4369 l0 -170 28 3 c26 3 27 6 30 66 3 57 5 62 26 62 16 0 36 -18 70 -65 40 -54 52 -65 77 -65 16 0 29 3 29 7 0 4 -18 33 -40 64 -22 32 -40 59 -40 62 0 2 14 10 30 17 38 16 50 37 50 88 0 30 -7 47 -29 71 -29 31 -30 31 -130 31 l-101 0 0 -171z m190 101 c24 -24 25 -32 3 -59 -12 -13 -35 -23 -65 -27 -68 -9 -74 -5 -70 55 l4 51 54 0 c41 0 59 -5 74 -20z"/>
<path d="M7352 4373 l3 -168 123 -3 122 -3 0 26 c0 25 0 25 -95 25 l-95 0 0 50 0 49 93 3 c87 3 92 4 95 26 3 21 1 22 -92 22 l-96 0 0 45 0 45 89 0 c91 0 106 5 95 34 -5 13 -26 16 -125 16 l-119 0 2 -167z"/>
<path d="M9044 4527 c-2 -7 -3 -82 -2 -167 l3 -155 28 -3 27 -3 0 65 0 66 29 0 c25 0 36 -10 73 -62 36 -52 49 -64 76 -66 17 -2 32 0 32 4 0 5 -19 35 -42 68 -32 45 -38 61 -28 64 8 3 27 18 42 33 40 39 39 99 -1 140 -29 28 -32 29 -131 29 -73 0 -102 -4 -106 -13z m196 -57 c24 -24 25 -32 3 -59 -14 -16 -31 -21 -78 -23 l-60 -3 -3 53 -3 52 60 0 c48 0 65 -4 81 -20z"/>
<path d="M10744 4527 c-2 -7 -3 -82 -2 -167 l3 -155 90 -3 c77 -2 96 1 134 20 62 32 83 74 79 158 -4 76 -28 118 -82 144 -44 21 -214 23 -222 3z m203 -57 c42 -25 60 -86 43 -143 -15 -51 -58 -77 -127 -77 l-53 0 0 120 0 120 53 0 c34 0 63 -7 84 -20z"/>
<path d="M11652 4373 l3 -168 28 -3 27 -3 0 65 0 66 71 0 c65 0 73 2 100 29 50 51 36 137 -28 170 -12 6 -63 11 -113 11 l-90 0 2 -167z m188 97 c24 -24 25 -38 4 -68 -13 -19 -24 -22 -75 -22 l-59 0 0 55 0 55 55 0 c42 0 60 -5 75 -20z"/>
<path d="M11987 4533 c-10 -9 -8 -306 1 -321 7 -9 39 -12 128 -10 111 3 119 4 119 23 0 18 -8 20 -97 23 l-98 3 0 49 0 49 93 3 c87 3 92 4 95 26 3 21 1 22 -92 22 l-96 0 0 45 0 45 95 0 c95 0 95 0 95 25 l0 25 -118 0 c-65 0 -122 -3 -125 -7z"/>
</g>
</svg>